<svg width="500" height="500" viewBox="0 0 500 500" fill="none" xmlns="http://www.w3.org/2000/svg">
<g clip-path="url(#clip0)">
<path d="M265.05 310.78L140.19 185.91C137.399 183.12 135.185 179.807 133.675 176.161C132.165 172.514 131.387 168.607 131.387 164.66C131.387 160.713 132.165 156.806 133.675 153.159C135.185 149.513 137.399 146.2 140.19 143.41C142.98 140.619 146.293 138.405 149.939 136.895C153.586 135.385 157.493 134.607 161.44 134.607C165.387 134.607 169.294 135.385 172.941 136.895C176.587 138.405 179.9 140.619 182.69 143.41L307.56 268.28C319.531 265.533 332.07 266.755 343.285 271.762C354.5 276.769 363.782 285.288 369.729 296.034C375.677 306.78 377.967 319.169 376.253 331.331C374.54 343.493 368.916 354.767 360.232 363.452C351.547 372.136 340.273 377.76 328.111 379.473C315.949 381.187 303.56 378.897 292.814 372.949C282.068 367.002 273.549 357.72 268.542 346.505C263.535 335.29 262.313 322.751 265.06 310.78H265.05Z" fill="white"/>
<path d="M270.36 305.48L194.94 230.06L152.82 187.94C150.38 185.5 147.89 183.11 145.51 180.63C134.51 169.13 138.1 149.31 153.43 143.57C170.07 137.34 181.05 152.37 191.31 162.63L238.07 209.39L286.21 257.53L299.83 271.15C300.62 271.94 301.37 272.83 302.22 273.54C305.52 276.31 308.58 275.54 312.5 274.93C317.248 274.164 322.084 274.103 326.85 274.75C344.85 277.2 360.79 290.04 366.56 307.35C371.99 323.63 368.93 342.43 357.46 355.46C346.31 368.12 329.28 374.73 312.46 371.97C294.89 369.07 279.54 356.58 273.81 339.59C270.882 330.964 270.349 321.705 272.27 312.8C274.27 303.39 259.83 299.36 257.81 308.8C252.99 331.29 259.71 355.15 276.97 370.8C284.595 377.643 293.729 382.587 303.628 385.229C313.527 387.87 323.91 388.135 333.93 386C354.74 381.61 372.06 366.38 379.83 346.73C387.52 327.29 384.95 303.94 372.83 286.84C357.54 265.29 331.29 255.5 305.58 261.02L312.88 262.95L259.59 209.7L191.49 141.6C189.146 139.123 186.633 136.811 183.97 134.68C178.163 130.355 171.238 127.786 164.015 127.277C156.793 126.769 149.576 128.342 143.22 131.81C120.79 144.1 118.27 174.39 135.63 191.96C155.72 212.29 176.05 232.38 196.26 252.59C217.03 273.36 237.43 294.59 258.6 314.93C258.99 315.31 259.37 315.7 259.75 316.08C266.58 322.92 277.19 312.31 270.36 305.48Z" fill="#231815"/>
<path d="M291.14 305.29L156 170.13C154.551 168.68 153.737 166.715 153.737 164.665C153.737 162.615 154.551 160.65 156 159.2V159.2C157.45 157.751 159.415 156.937 161.465 156.937C163.515 156.937 165.48 157.751 166.93 159.2L302.07 294.36C309.207 289.907 317.734 288.235 326.025 289.664C334.315 291.092 341.79 295.522 347.025 302.107C352.26 308.693 354.889 316.975 354.411 325.374C353.932 333.773 350.38 341.703 344.431 347.652C338.483 353.6 330.553 357.152 322.154 357.631C313.755 358.109 305.473 355.48 298.887 350.245C292.302 345.01 287.873 337.535 286.444 329.245C285.015 320.954 286.687 312.427 291.14 305.29V305.29Z" fill="#62BFF4"/>
</g>
<defs>
<clipPath id="clip0">
<rect width="500" height="500" fill="white"/>
</clipPath>
</defs>
</svg>
